Patient4_TMGait_0pt2_01_right_07_GRF.mot
version=1
nRows=78
nColumns=19
inDegrees=no
endheader
time	F1x	F1y	F1z	M1x	M1y	M1z	F2x	F2y	F2z	M2x	M2y	M2z	EC1x	EC1y	EC1z	EC2x	EC2y	EC2z
13.91	6.3655	727.5062	40.9314	-269.9992	-36.493	746.8056	-0.46216	54.5347	-8.5805	19.4174	8.1733	48.4644	-0.0592	0.0182	-0.0073	-0.0462	0.0165	0.9585
13.9338	6.8279	735.1426	40.8593	-272.7397	-36.1399	753.3249	-0.54	50.5116	-7.5635	17.9289	7.3014	45.3366	-0.0592	0.0182	-0.0073	-0.0462	0.0165	0.9585
13.9576	7.2025	744.9647	41.0946	-276.3386	-36.0437	761.8923	-0.7274	45.0842	-6.3576	15.9572	6.276	40.8468	-0.0592	0.0182	-0.0073	-0.0462	0.0165	0.9585
13.9814	7.4937	756.8424	41.7022	-280.7325	-36.2916	772.4172	-0.99753	38.4421	-5.0445	13.5753	5.161	35.1434	-0.0592	0.0182	-0.0073	-0.0462	0.0165	0.9585
14.0051	7.7428	770.1622	42.7057	-285.6631	-36.9308	784.3077	-1.2543	31.0052	-3.7222	10.9325	4.0183	28.6159	-0.0592	0.0182	-0.0073	-0.0462	0.0165	0.9585
14.0289	7.9814	783.6871	44.0711	-290.6388	-37.9529	796.3427	-1.3512	23.411	-2.4942	8.2502	2.8976	21.8578	-0.0592	0.0182	-0.0073	-0.0462	0.0165	0.9585
14.0527	8.2152	795.7895	45.6909	-295.0333	-39.2778	806.9169	-1.1937	16.4241	-1.4531	5.7921	1.8569	15.5775	-0.0592	0.0182	-0.0073	-0.0462	0.0165	0.9585
14.0765	8.461	804.908	47.3855	-298.2627	-40.7365	814.4834	-0.87106	10.637	-0.64901	3.7615	0.97642	10.3248	-0.0592	0.0182	-0.0073	-0.0462	0.0165	0.9585
14.1003	8.791	810.0475	48.9373	-299.9685	-42.0884	818.0407	-0.48749	6.1954	-0.075422	2.2071	0.28692	6.2398	-0.0592	0.0182	-0.0073	-0.0462	0.0165	0.9585
14.1241	9.3025	811.0177	50.1653	-300.0972	-43.1083	817.3771	-0.10197	2.9197	0.30844	1.0633	-0.22899	3.1518	-0.0592	0.0182	-0.0073	-0.0462	0.0165	0.9585
14.1479	10.0691	808.386	50.9644	-298.8804	-43.6462	813.0314	0.25696	0.46799	0.55446	0.20782	-0.61013	0.73266	-0.0592	0.0182	-0.0073	-0.0462	0.0165	0.9585
14.1716	11.1398	803.3189	51.303	-296.7728	-43.6294	806.1256	0.57987	-1.5444	0.71544	-0.4964	-0.90222	-1.383	-0.0592	0.0182	-0.0073	-0.0462	0.0165	0.9585
14.1954	12.5546	797.2662	51.2148	-294.3324	-43.0507	798.0401	0.86259	-3.452	0.8364	-1.1686	-1.1467	-3.5045	-0.0592	0.0182	-0.0073	-0.0462	0.0165	0.9585
14.2192	14.3527	791.5534	50.7885	-292.0648	-41.9584	790.0197	1.0931	-5.4618	0.94344	-1.8826	-1.3636	-5.808	-0.0592	0.0182	-0.0073	-0.0462	0.0165	0.9585
14.243	16.5636	786.9866	50.1669	-290.2771	-40.4613	782.8054	1.2415	-7.5823	1.0386	-2.6418	-1.5404	-8.2566	-0.0592	0.0182	-0.0073	-0.0462	0.0165	0.9585
14.2668	19.2033	783.6354	49.5193	-288.9938	-38.704	776.4232	1.2522	-9.5488	1.0962	-3.3529	-1.6266	-10.5149	-0.0592	0.0182	-0.0073	-0.0462	0.0165	0.9585
14.2906	22.2695	780.8688	49.0038	-287.9681	-36.8341	770.2474	1.0371	-10.7459	1.0613	-3.7986	-1.5251	-11.858	-0.0592	0.0182	-0.0073	-0.0462	0.0165	0.9585
14.3144	25.7256	777.5603	48.7416	-286.7596	-34.9848	763.223	0.47568	-10.1372	0.84554	-3.6103	-1.0868	-11.0902	-0.0592	0.0182	-0.0073	-0.0462	0.0165	0.9585
14.3381	29.4586	772.2601	48.7853	-284.8035	-33.2565	754.0471	-0.57218	-6.2291	0.32319	-2.254	-0.11635	-6.5086	-0.0592	0.0182	-0.0073	-0.0462	0.0165	0.9585
14.3619	33.2441	763.2905	49.0904	-281.4523	-31.7038	741.265	-2.2461	2.9006	-0.65507	0.95851	1.61	4.0662	-0.0592	0.0182	-0.0073	-0.0462	0.0165	0.9585
14.3857	36.7333	748.7944	49.5084	-276.002	-30.3359	723.3163	-4.6466	19.4464	-2.2378	6.8155	4.3031	23.1092	-0.0592	0.0182	-0.0073	-0.0462	0.0165	0.9585
14.4095	39.4906	726.875	49.8082	-267.7448	-29.1258	698.638	-7.772	45.5211	-4.5371	16.0806	8.0955	52.9769	-0.0592	0.0182	-0.0073	-0.0462	0.0165	0.9585
14.4333	41.0921	695.8657	49.7102	-256.0702	-28.0084	665.8792	-11.4295	82.5313	-7.5741	29.2736	12.9486	95.1875	-0.0592	0.0182	-0.0073	-0.0462	0.0165	0.9585
14.4571	41.2623	654.7936	48.9319	-240.6355	-26.8654	624.2945	-15.3193	130.4088	-11.251	46.3933	18.649	149.5381	-0.0592	0.0182	-0.0073	-0.0462	0.0165	0.9585
14.4809	39.9658	604.0014	47.2721	-221.5887	-25.5629	574.291	-19.4337	187.2793	-15.5769	66.7738	25.1963	213.7689	-0.0592	0.0182	-0.0073	-0.0462	0.0165	0.9585
14.5046	37.389	545.4724	44.6854	-199.6887	-24.0194	517.7347	-23.6334	249.7557	-20.512	89.1906	32.4796	283.9452	-0.0592	0.0182	-0.0073	-0.0462	0.0165	0.9585
14.5284	33.8861	482.6496	41.2868	-176.2396	-22.222	457.7921	-27.4916	314.0401	-25.7425	112.2781	39.9808	355.7002	-0.0592	0.0182	-0.0073	-0.0462	0.0165	0.9585
14.5522	29.8873	419.7138	37.3036	-152.8181	-20.2107	398.2621	-30.5728	376.6097	-30.7085	134.7821	46.91	425.0418	-0.0592	0.0182	-0.0073	-0.0462	0.0165	0.9585
14.576	25.7796	360.5889	33.0289	-130.8952	-18.0829	342.6664	-32.6191	434.3131	-34.8752	155.5747	52.5631	488.4909	-0.0592	0.0182	-0.0073	-0.0462	0.0165	0.9585
14.5998	21.8263	308.0525	28.7718	-111.5035	-15.9873	293.4549	-33.5624	484.6753	-37.9671	173.7461	56.5898	543.3998	-0.0592	0.0182	-0.0073	-0.0462	0.0165	0.9585
14.6236	18.1743	263.3396	24.7944	-95.0896	-14.0721	251.6581	-33.4884	526.2908	-39.9556	188.7521	58.9771	588.3456	-0.0592	0.0182	-0.0073	-0.0462	0.0165	0.9585
14.6474	14.9023	226.3736	21.2521	-81.6034	-12.4195	217.1124	-32.585	558.9946	-40.9673	200.4947	59.9295	623.2755	-0.0592	0.0182	-0.0073	-0.0462	0.0165	0.9585
14.6711	12.0519	196.3292	18.2027	-70.7131	-11.045	188.9921	-31.0938	583.6826	-41.1952	209.2729	59.7522	649.2843	-0.0592	0.0182	-0.0073	-0.0462	0.0165	0.9585
14.6949	9.6309	172.1899	15.6442	-62.0191	-9.9306	166.3274	-29.2952	601.8924	-40.849	215.6353	58.7882	668.1589	-0.0592	0.0182	-0.0073	-0.0462	0.0165	0.9585
14.7187	7.614	153.1095	13.5577	-55.1885	-9.0604	148.3352	-27.4751	615.3373	-40.1333	220.2077	57.379	681.8736	-0.0592	0.0182	-0.0073	-0.0462	0.0165	0.9585
14.7425	5.961	138.4212	11.9343	-49.9578	-8.4366	134.4138	-25.8859	625.5551	-39.2207	223.5576	55.8165	692.1997	-0.0592	0.0182	-0.0073	-0.0462	0.0165	0.9585
14.7663	4.6361	127.3873	10.756	-46.0413	-8.0562	123.8911	-24.7119	633.6992	-38.2592	226.1058	54.3308	700.4598	-0.0592	0.0182	-0.0073	-0.0462	0.0165	0.9585
14.7901	3.6121	118.9625	9.9757	-43.0467	-7.8891	115.7895	-24.0245	640.5014	-37.4105	228.1044	53.1113	707.4566	-0.0592	0.0182	-0.0073	-0.0462	0.0165	0.9585
14.8139	2.8441	111.7455	9.5136	-40.4599	-7.8801	108.7846	-23.7634	646.4992	-36.8387	229.7246	52.2954	713.6983	-0.0592	0.0182	-0.0073	-0.0462	0.0165	0.9585
14.8376	2.2448	104.2323	9.2552	-37.7357	-7.9573	101.4503	-23.7591	652.3452	-36.6846	231.1785	51.9581	719.744	-0.0592	0.0182	-0.0073	-0.0462	0.0165	0.9585
14.8614	1.7053	95.2422	9.0631	-34.4512	-8.0378	92.6678	-23.7709	658.8598	-37.0701	232.7447	52.1408	726.2895	-0.0592	0.0182	-0.0073	-0.0462	0.0165	0.9585
14.8852	1.1363	84.2085	8.8045	-30.4105	-8.0377	81.9006	-23.5466	666.8152	-38.0636	234.7015	52.8389	733.9795	-0.0592	0.0182	-0.0073	-0.0462	0.0165	0.9585
14.909	0.49514	71.2568	8.3729	-25.6719	-7.8804	69.2723	-22.9155	676.7415	-39.6191	237.2748	53.9703	743.2406	-0.0592	0.0182	-0.0073	-0.0462	0.0165	0.9585
14.9328	-0.20924	57.0984	7.689	-20.5071	-7.4934	55.4743	-21.8515	688.8507	-41.5468	240.6254	55.3608	754.2289	-0.0592	0.0182	-0.0073	-0.0462	0.0165	0.9585
14.9566	-0.90837	42.7927	6.7155	-15.3093	-6.8188	41.539	-20.4557	703.1164	-43.5147	244.8823	56.7312	766.9033	-0.0592	0.0182	-0.0073	-0.0462	0.0165	0.9585
14.9804	-1.4731	29.4588	5.482	-10.4852	-5.8401	28.5549	-18.9016	719.4505	-45.0804	250.1883	57.7004	781.1827	-0.0592	0.0182	-0.0073	-0.0462	0.0165	0.9585
15.0041	-1.7797	18.0262	4.097	-6.3658	-4.6179	17.4214	-17.3683	737.8663	-45.7961	256.7149	57.8584	797.0819	-0.0592	0.0182	-0.0073	-0.0462	0.0165	0.9585
15.0279	-1.8247	9.0681	2.7367	-3.1509	-3.3221	8.6943	-15.9676	758.5337	-45.339	264.6284	56.8744	814.7539	-0.0592	0.0182	-0.0073	-0.0462	0.0165	0.9585
15.0517	-1.7115	2.6917	1.5734	-0.87137	-2.156	2.483	-14.7135	781.4749	-43.6208	273.9409	54.6022	834.1976	-0.0592	0.0182	-0.0073	-0.0462	0.0165	0.9585
15.0755	-1.5309	-1.3985	0.67882	0.58339	-1.2221	-1.4935	-13.578	805.9846	-40.8008	284.296	51.1317	854.7299	-0.0592	0.0182	-0.0073	-0.0462	0.0165	0.9585
15.0993	-1.3448	-3.6869	0.0524	1.3906	-0.54362	-3.7042	-12.5733	830.2304	-37.2619	294.8474	46.8135	874.6329	-0.0592	0.0182	-0.0073	-0.0462	0.0165	0.9585
15.1231	-1.1902	-4.6946	-0.34485	1.7403	-0.099109	-4.66	-11.7754	851.3489	-33.5259	304.3353	42.1915	891.2458	-0.0592	0.0182	-0.0073	-0.0462	0.0165	0.9585
15.1469	-1.085	-4.8901	-0.56448	1.8022	0.15345	-4.8296	-11.27	866.2521	-30.0814	311.4299	37.8137	901.717	-0.0592	0.0182	-0.0073	-0.0462	0.0165	0.9585
15.1706	-1.0344	-4.6555	-0.65666	1.7137	0.25847	-4.5925	-11.042	872.7036	-27.2535	315.1651	34.0549	904.0049	-0.0592	0.0182	-0.0073	-0.0462	0.0165	0.9585
15.1944	-1.0356	-4.2782	-0.66471	1.5772	0.25746	-4.2278	-10.9347	869.9601	-25.182	315.191	31.0661	897.4498	-0.0592	0.0182	-0.0073	-0.0462	0.0165	0.9585
15.2182	-1.0781	-3.9576	-0.62293	1.4635	0.18869	-3.9296	-10.7011	858.8621	-23.8566	311.8027	28.8163	882.8681	-0.0592	0.0182	-0.0073	-0.0462	0.0165	0.9585
15.242	-1.1481	-3.8188	-0.55985	1.4177	0.086386	-3.8204	-10.105	841.4912	-23.1811	305.7996	27.1778	862.2453	-0.0592	0.0182	-0.0073	-0.0462	0.0165	0.9585
15.2658	-1.2295	-3.9236	-0.49546	1.4619	-0.022159	-3.9608	-8.9841	820.6175	-23.0244	298.2603	25.9946	838.2223	-0.0592	0.0182	-0.0073	-0.0462	0.0165	0.9585
15.2896	-1.2954	-4.2722	-0.4407	1.5954	-0.11372	-4.3476	-7.2645	799.1089	-23.2493	290.3087	25.1129	813.5361	-0.0592	0.0182	-0.0073	-0.0462	0.0165	0.9585
15.3134	-1.3046	-4.8003	-0.40245	1.7945	-0.16462	-4.915	-4.9485	779.4282	-23.7307	282.9177	24.3982	790.5299	-0.0592	0.0182	-0.0073	-0.0462	0.0165	0.9585
15.3371	-1.1984	-5.3664	-0.38455	2.0073	-0.14833	-5.5235	-2.0884	763.3118	-24.3728	276.787	23.7485	770.8343	-0.0592	0.0182	-0.0073	-0.0462	0.0165	0.9585
15.3609	-0.90014	-5.7389	-0.38695	2.1439	-0.034822	-5.9341	1.2397	751.6411	-25.1139	272.2908	23.0954	755.2469	-0.0592	0.0182	-0.0073	-0.0462	0.0165	0.9585
15.3847	-0.31822	-5.5756	-0.40921	2.0711	0.2122	-5.784	4.9352	744.4459	-25.9248	269.4765	22.4055	743.7472	-0.0592	0.0182	-0.0073	-0.0462	0.0165	0.9585
15.4085	0.64019	-4.4059	-0.45139	1.6096	0.63039	-4.5788	8.8945	741.0345	-26.7922	268.112	21.6672	735.6366	-0.0592	0.0182	-0.0073	-0.0462	0.0165	0.9585
15.4323	2.0443	-1.6375	-0.51829	0.53744	1.2538	-1.6927	13.0293	740.1781	-27.7024	267.7527	20.8738	729.7348	-0.0592	0.0182	-0.0073	-0.0462	0.0165	0.9585
15.4561	3.9006	3.3948	-0.61467	-1.3941	2.0943	3.5861	17.2269	740.3078	-28.632	267.8128	20.0311	724.5962	-0.0592	0.0182	-0.0073	-0.0462	0.0165	0.9585
15.4799	6.0996	11.3241	-0.73967	-4.4208	3.1159	11.9399	21.3284	739.7729	-29.5448	267.663	19.1586	718.7689	-0.0592	0.0182	-0.0073	-0.0462	0.0165	0.9585
15.5036	8.3245	22.5956	-0.88146	-8.7068	4.1935	23.8693	25.1312	737.0808	-30.3892	266.7229	18.2858	711.0284	-0.0592	0.0182	-0.0073	-0.0462	0.0165	0.9585
15.5274	10.0537	37.3236	-1.0081	-14.2893	5.0942	39.5525	28.3895	731.0378	-31.1081	264.5167	17.4653	700.5039	-0.0592	0.0182	-0.0073	-0.0462	0.0165	0.9585
15.5512	10.9264	55.4288	-1.0553	-21.1258	5.603	58.9697	30.8234	720.8024	-31.6447	260.7009	16.7753	686.6944	-0.0592	0.0182	-0.0073	-0.0462	0.0165	0.9585
15.575	10.8227	76.8264	-0.85626	-29.1595	5.4804	82.0838	32.1557	705.9048	-31.9348	255.084	16.2947	669.4275	-0.0592	0.0182	-0.0073	-0.0462	0.0165	0.9585
15.5988	9.6873	101.426	-0.14421	-38.3241	4.3987	108.8474	32.1939	686.2494	-31.8909	247.6388	16.0515	648.7907	-0.0592	0.0182	-0.0073	-0.0462	0.0165	0.9585
15.6226	7.5453	129.1199	1.3005	-48.5561	2.1115	139.184	30.9293	662.0648	-31.4163	238.4842	15.994	625.018	-0.0592	0.0182	-0.0073	-0.0462	0.0165	0.9585
15.6464	4.5517	159.575	3.4877	-59.7322	-1.3433	172.7299	28.5758	633.8219	-30.4478	227.8406	16.0042	598.3853	-0.0592	0.0182	-0.0073	-0.0462	0.0165	0.9585
15.6701	0.99708	192.0743	6.1744	-71.612	-5.5918	208.6577	25.5105	602.2133	-28.9987	216.007	15.9542	569.2421	-0.0592	0.0182	-0.0073	-0.0462	0.0165	0.9585
15.6939	-2.7408	225.6564	9.0246	-83.8731	-10.1216	245.854	22.155	568.1798	-27.1675	203.3612	15.7595	538.1282	-0.0592	0.0182	-0.0073	-0.0462	0.0165	0.9585
15.7177	-6.3024	259.4425	11.8063	-96.2092	-14.5399	283.2862	18.8764	532.8269	-25.1175	190.3243	15.405	505.7755	-0.0592	0.0182	-0.0073	-0.0462	0.0165	0.9585
15.7415	-9.435	292.8459	14.4303	-108.4021	-18.6442	320.243	15.9364	497.2305	-23.0433	177.2903	14.9373	472.9732	-0.0592	0.0182	-0.0073	-0.0462	0.0165	0.9585
